<svg xmlns="http://www.w3.org/2000/svg" viewBox="0 0 1600 1000" width="1600" height="1000" role="img" aria-label="Database Health">
  <defs>
    <linearGradient id="glow" x1="0" y1="0" x2="1" y2="1">
      <stop offset="0" stop-color="#f97316" stop-opacity="0.10"/>
      <stop offset="1" stop-color="#f97316" stop-opacity="0"/>
    </linearGradient>
  </defs>
  <rect x="0" y="0" width="1600" height="1000" rx="0" fill="#0a0a0c" />
  <rect x="248" y="52" width="1352" height="948" rx="0" fill="#0c0c10" />
  <rect x="248" y="52" width="1352" height="948" fill="url(#glow)"/>
  <rect x="0" y="0" width="248" height="1000" rx="0" fill="#141418" /><rect x="247" y="0" width="1" height="1000" rx="0" fill="#26262e" /><rect x="24" y="26" width="28" height="28" rx="8" fill="#f97316" /><text x="64" y="45" fill="#e7e7ea" font-size="18" font-weight="700" text-anchor="start" font-family="Inter,-apple-system,'Segoe UI',Roboto,sans-serif">Swyftgrids</text><rect x="20" y="76" width="208" height="36" rx="9" fill="#1d1d24" /><text x="38" y="99" fill="#5f6671" font-size="13" font-weight="400" text-anchor="start" font-family="Inter,-apple-system,'Segoe UI',Roboto,sans-serif">Search everything…</text><rect x="28" y="129" width="16" height="16" rx="4" fill="#5f6671" /><text x="60" y="142" fill="#9aa0aa" font-size="14" font-weight="400" text-anchor="start" font-family="Inter,-apple-system,'Segoe UI',Roboto,sans-serif">Dashboard</text><rect x="28" y="173" width="16" height="16" rx="4" fill="#5f6671" /><text x="60" y="186" fill="#9aa0aa" font-size="14" font-weight="400" text-anchor="start" font-family="Inter,-apple-system,'Segoe UI',Roboto,sans-serif">Tables</text><rect x="28" y="217" width="16" height="16" rx="4" fill="#5f6671" /><text x="60" y="230" fill="#9aa0aa" font-size="14" font-weight="400" text-anchor="start" font-family="Inter,-apple-system,'Segoe UI',Roboto,sans-serif">SQL Editor</text><rect x="28" y="261" width="16" height="16" rx="4" fill="#5f6671" /><text x="60" y="274" fill="#9aa0aa" font-size="14" font-weight="400" text-anchor="start" font-family="Inter,-apple-system,'Segoe UI',Roboto,sans-serif">Schema</text><rect x="14" y="294" width="220" height="38" rx="9" fill="rgba(249,115,22,0.16)" /><rect x="28" y="305" width="16" height="16" rx="4" fill="#f97316" /><text x="60" y="318" fill="#e7e7ea" font-size="14" font-weight="600" text-anchor="start" font-family="Inter,-apple-system,'Segoe UI',Roboto,sans-serif">Performance</text><rect x="28" y="349" width="16" height="16" rx="4" fill="#5f6671" /><text x="60" y="362" fill="#9aa0aa" font-size="14" font-weight="400" text-anchor="start" font-family="Inter,-apple-system,'Segoe UI',Roboto,sans-serif">AI</text><rect x="20" y="930" width="208" height="44" rx="10" fill="#1d1d24" /><circle cx="42" cy="952" r="5" fill="#22c55e"/><text x="60" y="948" fill="#e7e7ea" font-size="13" font-weight="600" text-anchor="start" font-family="Inter,-apple-system,'Segoe UI',Roboto,sans-serif">production</text><text x="60" y="964" fill="#5f6671" font-size="11" font-weight="400" text-anchor="start" font-family="Inter,-apple-system,'Segoe UI',Roboto,sans-serif">postgres · 17.2</text>
  <rect x="248" y="0" width="1352" height="52" rx="0" fill="#0a0a0c" /><rect x="248" y="51" width="1352" height="1" rx="0" fill="#26262e" /><circle cx="274" cy="26" r="6" fill="#ff5f57"/><circle cx="294" cy="26" r="6" fill="#febc2e"/><circle cx="314" cy="26" r="6" fill="#28c840"/><text x="348" y="31" fill="#9aa0aa" font-size="13" font-weight="600" text-anchor="start" font-family="Inter,-apple-system,'Segoe UI',Roboto,sans-serif">Database Health</text>
  <g transform="translate(276, 80)"><text x="0" y="4" fill="#e7e7ea" font-size="22" font-weight="700" text-anchor="start" font-family="Inter,-apple-system,'Segoe UI',Roboto,sans-serif">Database health</text><rect x="0" y="40" width="300" height="220" rx="14" fill="#141418" /><circle cx="150" cy="150" r="70" stroke="#1d1d24" stroke-width="14" fill="none"/><circle cx="150" cy="150" r="70" stroke="#22c55e" stroke-width="14" fill="none" stroke-linecap="round" stroke-dasharray="378.24775549221107 439.822971502571" transform="rotate(-90 150 150)"/><text x="150" y="148" fill="#e7e7ea" font-size="40" font-weight="700" text-anchor="middle" font-family="Inter,-apple-system,'Segoe UI',Roboto,sans-serif">86</text><text x="150" y="172" fill="#22c55e" font-size="13" font-weight="600" text-anchor="middle" font-family="Inter,-apple-system,'Segoe UI',Roboto,sans-serif">Healthy</text><rect x="330" y="40" width="280" height="92" rx="12" fill="#141418" /><text x="348" y="70" fill="#9aa0aa" font-size="13" font-weight="400" text-anchor="start" font-family="Inter,-apple-system,'Segoe UI',Roboto,sans-serif">Cache hit ratio</text><text x="348" y="106" fill="#22c55e" font-size="26" font-weight="700" text-anchor="start" font-family="Inter,-apple-system,'Segoe UI',Roboto,sans-serif">99.2%</text><rect x="630" y="40" width="280" height="92" rx="12" fill="#141418" /><text x="648" y="70" fill="#9aa0aa" font-size="13" font-weight="400" text-anchor="start" font-family="Inter,-apple-system,'Segoe UI',Roboto,sans-serif">Index usage</text><text x="648" y="106" fill="#22c55e" font-size="26" font-weight="700" text-anchor="start" font-family="Inter,-apple-system,'Segoe UI',Roboto,sans-serif">94%</text><rect x="330" y="148" width="280" height="92" rx="12" fill="#141418" /><text x="348" y="178" fill="#9aa0aa" font-size="13" font-weight="400" text-anchor="start" font-family="Inter,-apple-system,'Segoe UI',Roboto,sans-serif">Table bloat</text><text x="348" y="214" fill="#eab308" font-size="26" font-weight="700" text-anchor="start" font-family="Inter,-apple-system,'Segoe UI',Roboto,sans-serif">12%</text><rect x="630" y="148" width="280" height="92" rx="12" fill="#141418" /><text x="648" y="178" fill="#9aa0aa" font-size="13" font-weight="400" text-anchor="start" font-family="Inter,-apple-system,'Segoe UI',Roboto,sans-serif">Dead tuples</text><text x="648" y="214" fill="#eab308" font-size="26" font-weight="700" text-anchor="start" font-family="Inter,-apple-system,'Segoe UI',Roboto,sans-serif">3.1M</text><rect x="0" y="290" width="1296" height="360" rx="12" fill="#141418" /><text x="20" y="322" fill="#e7e7ea" font-size="15" font-weight="700" text-anchor="start" font-family="Inter,-apple-system,'Segoe UI',Roboto,sans-serif">Recommendations</text><rect x="16" y="348" width="1264" height="56" rx="10" fill="#1d1d24" /><circle cx="44" cy="376" r="6" fill="#ef4444"/><text x="70" y="372" fill="#e7e7ea" font-size="13" font-weight="600" text-anchor="start" font-family="Inter,-apple-system,'Segoe UI',Roboto,sans-serif">Missing index on orders.user_id</text><text x="70" y="392" fill="#5f6671" font-size="12" font-weight="400" text-anchor="start" font-family="Inter,-apple-system,'Segoe UI',Roboto,sans-serif">High impact · ~240ms/query</text><rect x="1166" y="362" width="96" height="28" rx="7" fill="rgba(249,115,22,0.14)" /><text x="1214" y="381" fill="#f97316" font-size="12" font-weight="600" text-anchor="middle" font-family="Inter,-apple-system,'Segoe UI',Roboto,sans-serif">Fix</text><rect x="16" y="416" width="1264" height="56" rx="10" fill="#1d1d24" /><circle cx="44" cy="444" r="6" fill="#eab308"/><text x="70" y="440" fill="#e7e7ea" font-size="13" font-weight="600" text-anchor="start" font-family="Inter,-apple-system,'Segoe UI',Roboto,sans-serif">Unused index idx_orders_legacy</text><text x="70" y="460" fill="#5f6671" font-size="12" font-weight="400" text-anchor="start" font-family="Inter,-apple-system,'Segoe UI',Roboto,sans-serif">Reclaim 84 MB</text><rect x="1166" y="430" width="96" height="28" rx="7" fill="rgba(249,115,22,0.14)" /><text x="1214" y="449" fill="#f97316" font-size="12" font-weight="600" text-anchor="middle" font-family="Inter,-apple-system,'Segoe UI',Roboto,sans-serif">Fix</text><rect x="16" y="484" width="1264" height="56" rx="10" fill="#1d1d24" /><circle cx="44" cy="512" r="6" fill="#eab308"/><text x="70" y="508" fill="#e7e7ea" font-size="13" font-weight="600" text-anchor="start" font-family="Inter,-apple-system,'Segoe UI',Roboto,sans-serif">VACUUM recommended on events</text><text x="70" y="528" fill="#5f6671" font-size="12" font-weight="400" text-anchor="start" font-family="Inter,-apple-system,'Segoe UI',Roboto,sans-serif">3.1M dead tuples</text><rect x="1166" y="498" width="96" height="28" rx="7" fill="rgba(249,115,22,0.14)" /><text x="1214" y="517" fill="#f97316" font-size="12" font-weight="600" text-anchor="middle" font-family="Inter,-apple-system,'Segoe UI',Roboto,sans-serif">Fix</text><rect x="16" y="552" width="1264" height="56" rx="10" fill="#1d1d24" /><circle cx="44" cy="580" r="6" fill="#ef4444"/><text x="70" y="576" fill="#e7e7ea" font-size="13" font-weight="600" text-anchor="start" font-family="Inter,-apple-system,'Segoe UI',Roboto,sans-serif">Slow query: SELECT * FROM logs …</text><text x="70" y="596" fill="#5f6671" font-size="12" font-weight="400" text-anchor="start" font-family="Inter,-apple-system,'Segoe UI',Roboto,sans-serif">1.8s avg · 2,401 calls</text><rect x="1166" y="566" width="96" height="28" rx="7" fill="rgba(249,115,22,0.14)" /><text x="1214" y="585" fill="#f97316" font-size="12" font-weight="600" text-anchor="middle" font-family="Inter,-apple-system,'Segoe UI',Roboto,sans-serif">Fix</text></g>
</svg>