<svg xmlns="http://www.w3.org/2000/svg" viewBox="0 0 1600 1000" width="1600" height="1000" role="img" aria-label="Schema Diagram">
  <defs>
    <linearGradient id="glow" x1="0" y1="0" x2="1" y2="1">
      <stop offset="0" stop-color="#f97316" stop-opacity="0.10"/>
      <stop offset="1" stop-color="#f97316" stop-opacity="0"/>
    </linearGradient>
  </defs>
  <rect x="0" y="0" width="1600" height="1000" rx="0" fill="#0a0a0c" />
  <rect x="248" y="52" width="1352" height="948" rx="0" fill="#0c0c10" />
  <rect x="248" y="52" width="1352" height="948" fill="url(#glow)"/>
  <rect x="0" y="0" width="248" height="1000" rx="0" fill="#141418" /><rect x="247" y="0" width="1" height="1000" rx="0" fill="#26262e" /><rect x="24" y="26" width="28" height="28" rx="8" fill="#f97316" /><text x="64" y="45" fill="#e7e7ea" font-size="18" font-weight="700" text-anchor="start" font-family="Inter,-apple-system,'Segoe UI',Roboto,sans-serif">Swyftgrids</text><rect x="20" y="76" width="208" height="36" rx="9" fill="#1d1d24" /><text x="38" y="99" fill="#5f6671" font-size="13" font-weight="400" text-anchor="start" font-family="Inter,-apple-system,'Segoe UI',Roboto,sans-serif">Search everything…</text><rect x="28" y="129" width="16" height="16" rx="4" fill="#5f6671" /><text x="60" y="142" fill="#9aa0aa" font-size="14" font-weight="400" text-anchor="start" font-family="Inter,-apple-system,'Segoe UI',Roboto,sans-serif">Dashboard</text><rect x="28" y="173" width="16" height="16" rx="4" fill="#5f6671" /><text x="60" y="186" fill="#9aa0aa" font-size="14" font-weight="400" text-anchor="start" font-family="Inter,-apple-system,'Segoe UI',Roboto,sans-serif">Tables</text><rect x="28" y="217" width="16" height="16" rx="4" fill="#5f6671" /><text x="60" y="230" fill="#9aa0aa" font-size="14" font-weight="400" text-anchor="start" font-family="Inter,-apple-system,'Segoe UI',Roboto,sans-serif">SQL Editor</text><rect x="14" y="250" width="220" height="38" rx="9" fill="rgba(249,115,22,0.16)" /><rect x="28" y="261" width="16" height="16" rx="4" fill="#f97316" /><text x="60" y="274" fill="#e7e7ea" font-size="14" font-weight="600" text-anchor="start" font-family="Inter,-apple-system,'Segoe UI',Roboto,sans-serif">Schema</text><rect x="28" y="305" width="16" height="16" rx="4" fill="#5f6671" /><text x="60" y="318" fill="#9aa0aa" font-size="14" font-weight="400" text-anchor="start" font-family="Inter,-apple-system,'Segoe UI',Roboto,sans-serif">Performance</text><rect x="28" y="349" width="16" height="16" rx="4" fill="#5f6671" /><text x="60" y="362" fill="#9aa0aa" font-size="14" font-weight="400" text-anchor="start" font-family="Inter,-apple-system,'Segoe UI',Roboto,sans-serif">AI</text><rect x="20" y="930" width="208" height="44" rx="10" fill="#1d1d24" /><circle cx="42" cy="952" r="5" fill="#22c55e"/><text x="60" y="948" fill="#e7e7ea" font-size="13" font-weight="600" text-anchor="start" font-family="Inter,-apple-system,'Segoe UI',Roboto,sans-serif">production</text><text x="60" y="964" fill="#5f6671" font-size="11" font-weight="400" text-anchor="start" font-family="Inter,-apple-system,'Segoe UI',Roboto,sans-serif">postgres · 17.2</text>
  <rect x="248" y="0" width="1352" height="52" rx="0" fill="#0a0a0c" /><rect x="248" y="51" width="1352" height="1" rx="0" fill="#26262e" /><circle cx="274" cy="26" r="6" fill="#ff5f57"/><circle cx="294" cy="26" r="6" fill="#febc2e"/><circle cx="314" cy="26" r="6" fill="#28c840"/><text x="348" y="31" fill="#9aa0aa" font-size="13" font-weight="600" text-anchor="start" font-family="Inter,-apple-system,'Segoe UI',Roboto,sans-serif">Schema Diagram</text>
  <g transform="translate(276, 80)"><text x="0" y="4" fill="#e7e7ea" font-size="22" font-weight="700" text-anchor="start" font-family="Inter,-apple-system,'Segoe UI',Roboto,sans-serif">Schema diagram</text><text x="0" y="30" fill="#9aa0aa" font-size="13" font-weight="400" text-anchor="start" font-family="Inter,-apple-system,'Segoe UI',Roboto,sans-serif">public · 9 tables · auto-generated</text><path d="M 250 150 C 340 150, 340 120, 430 120" stroke="#f97316" stroke-width="2" fill="none" opacity="0.7"/><path d="M 250 200 C 340 200, 340 360, 430 360" stroke="#f97316" stroke-width="2" fill="none" opacity="0.7"/><path d="M 660 150 C 750 150, 750 360, 840 360" stroke="#f97316" stroke-width="2" fill="none" opacity="0.7"/><rect x="20" y="90" width="230" height="108" rx="10" fill="#141418" stroke="#26262e"/><rect x="20" y="90" width="230" height="30" rx="10" fill="#1d1d24" /><rect x="20" y="110" width="230" height="10" fill="#1d1d24"/><text x="34" y="110" fill="#f97316" font-size="13" font-weight="700" text-anchor="start" font-family="Inter,-apple-system,'Segoe UI',Roboto,sans-serif">users</text><text x="34" y="140" fill="#e7e7ea" font-size="12" font-weight="400" text-anchor="start" font-family="'SFMono-Regular',ui-monospace,Menlo,Consolas,monospace">id</text><text x="236" y="140" fill="#5f6671" font-size="11" font-weight="400" text-anchor="end" font-family="'SFMono-Regular',ui-monospace,Menlo,Consolas,monospace">uuid</text><text x="34" y="166" fill="#e7e7ea" font-size="12" font-weight="400" text-anchor="start" font-family="'SFMono-Regular',ui-monospace,Menlo,Consolas,monospace">email</text><text x="236" y="166" fill="#5f6671" font-size="11" font-weight="400" text-anchor="end" font-family="'SFMono-Regular',ui-monospace,Menlo,Consolas,monospace">text</text><text x="34" y="192" fill="#e7e7ea" font-size="12" font-weight="400" text-anchor="start" font-family="'SFMono-Regular',ui-monospace,Menlo,Consolas,monospace">created_at</text><text x="236" y="192" fill="#5f6671" font-size="11" font-weight="400" text-anchor="end" font-family="'SFMono-Regular',ui-monospace,Menlo,Consolas,monospace">tstz</text><rect x="430" y="70" width="230" height="134" rx="10" fill="#141418" stroke="#26262e"/><rect x="430" y="70" width="230" height="30" rx="10" fill="#1d1d24" /><rect x="430" y="90" width="230" height="10" fill="#1d1d24"/><text x="444" y="90" fill="#f97316" font-size="13" font-weight="700" text-anchor="start" font-family="Inter,-apple-system,'Segoe UI',Roboto,sans-serif">orders</text><text x="444" y="120" fill="#e7e7ea" font-size="12" font-weight="400" text-anchor="start" font-family="'SFMono-Regular',ui-monospace,Menlo,Consolas,monospace">id</text><text x="646" y="120" fill="#5f6671" font-size="11" font-weight="400" text-anchor="end" font-family="'SFMono-Regular',ui-monospace,Menlo,Consolas,monospace">bigint</text><text x="444" y="146" fill="#e7e7ea" font-size="12" font-weight="400" text-anchor="start" font-family="'SFMono-Regular',ui-monospace,Menlo,Consolas,monospace">user_id</text><text x="646" y="146" fill="#5f6671" font-size="11" font-weight="400" text-anchor="end" font-family="'SFMono-Regular',ui-monospace,Menlo,Consolas,monospace">fk</text><text x="444" y="172" fill="#e7e7ea" font-size="12" font-weight="400" text-anchor="start" font-family="'SFMono-Regular',ui-monospace,Menlo,Consolas,monospace">total</text><text x="646" y="172" fill="#5f6671" font-size="11" font-weight="400" text-anchor="end" font-family="'SFMono-Regular',ui-monospace,Menlo,Consolas,monospace">numeric</text><text x="444" y="198" fill="#e7e7ea" font-size="12" font-weight="400" text-anchor="start" font-family="'SFMono-Regular',ui-monospace,Menlo,Consolas,monospace">status</text><text x="646" y="198" fill="#5f6671" font-size="11" font-weight="400" text-anchor="end" font-family="'SFMono-Regular',ui-monospace,Menlo,Consolas,monospace">enum</text><rect x="430" y="320" width="230" height="108" rx="10" fill="#141418" stroke="#26262e"/><rect x="430" y="320" width="230" height="30" rx="10" fill="#1d1d24" /><rect x="430" y="340" width="230" height="10" fill="#1d1d24"/><text x="444" y="340" fill="#f97316" font-size="13" font-weight="700" text-anchor="start" font-family="Inter,-apple-system,'Segoe UI',Roboto,sans-serif">order_items</text><text x="444" y="370" fill="#e7e7ea" font-size="12" font-weight="400" text-anchor="start" font-family="'SFMono-Regular',ui-monospace,Menlo,Consolas,monospace">id</text><text x="646" y="370" fill="#5f6671" font-size="11" font-weight="400" text-anchor="end" font-family="'SFMono-Regular',ui-monospace,Menlo,Consolas,monospace">bigint</text><text x="444" y="396" fill="#e7e7ea" font-size="12" font-weight="400" text-anchor="start" font-family="'SFMono-Regular',ui-monospace,Menlo,Consolas,monospace">order_id</text><text x="646" y="396" fill="#5f6671" font-size="11" font-weight="400" text-anchor="end" font-family="'SFMono-Regular',ui-monospace,Menlo,Consolas,monospace">fk</text><text x="444" y="422" fill="#e7e7ea" font-size="12" font-weight="400" text-anchor="start" font-family="'SFMono-Regular',ui-monospace,Menlo,Consolas,monospace">qty</text><text x="646" y="422" fill="#5f6671" font-size="11" font-weight="400" text-anchor="end" font-family="'SFMono-Regular',ui-monospace,Menlo,Consolas,monospace">int</text><rect x="840" y="320" width="230" height="108" rx="10" fill="#141418" stroke="#26262e"/><rect x="840" y="320" width="230" height="30" rx="10" fill="#1d1d24" /><rect x="840" y="340" width="230" height="10" fill="#1d1d24"/><text x="854" y="340" fill="#f97316" font-size="13" font-weight="700" text-anchor="start" font-family="Inter,-apple-system,'Segoe UI',Roboto,sans-serif">products</text><text x="854" y="370" fill="#e7e7ea" font-size="12" font-weight="400" text-anchor="start" font-family="'SFMono-Regular',ui-monospace,Menlo,Consolas,monospace">id</text><text x="1056" y="370" fill="#5f6671" font-size="11" font-weight="400" text-anchor="end" font-family="'SFMono-Regular',ui-monospace,Menlo,Consolas,monospace">bigint</text><text x="854" y="396" fill="#e7e7ea" font-size="12" font-weight="400" text-anchor="start" font-family="'SFMono-Regular',ui-monospace,Menlo,Consolas,monospace">name</text><text x="1056" y="396" fill="#5f6671" font-size="11" font-weight="400" text-anchor="end" font-family="'SFMono-Regular',ui-monospace,Menlo,Consolas,monospace">text</text><text x="854" y="422" fill="#e7e7ea" font-size="12" font-weight="400" text-anchor="start" font-family="'SFMono-Regular',ui-monospace,Menlo,Consolas,monospace">price</text><text x="1056" y="422" fill="#5f6671" font-size="11" font-weight="400" text-anchor="end" font-family="'SFMono-Regular',ui-monospace,Menlo,Consolas,monospace">numeric</text><rect x="840" y="70" width="230" height="108" rx="10" fill="#141418" stroke="#26262e"/><rect x="840" y="70" width="230" height="30" rx="10" fill="#1d1d24" /><rect x="840" y="90" width="230" height="10" fill="#1d1d24"/><text x="854" y="90" fill="#f97316" font-size="13" font-weight="700" text-anchor="start" font-family="Inter,-apple-system,'Segoe UI',Roboto,sans-serif">payments</text><text x="854" y="120" fill="#e7e7ea" font-size="12" font-weight="400" text-anchor="start" font-family="'SFMono-Regular',ui-monospace,Menlo,Consolas,monospace">id</text><text x="1056" y="120" fill="#5f6671" font-size="11" font-weight="400" text-anchor="end" font-family="'SFMono-Regular',ui-monospace,Menlo,Consolas,monospace">bigint</text><text x="854" y="146" fill="#e7e7ea" font-size="12" font-weight="400" text-anchor="start" font-family="'SFMono-Regular',ui-monospace,Menlo,Consolas,monospace">order_id</text><text x="1056" y="146" fill="#5f6671" font-size="11" font-weight="400" text-anchor="end" font-family="'SFMono-Regular',ui-monospace,Menlo,Consolas,monospace">fk</text><text x="854" y="172" fill="#e7e7ea" font-size="12" font-weight="400" text-anchor="start" font-family="'SFMono-Regular',ui-monospace,Menlo,Consolas,monospace">amount</text><text x="1056" y="172" fill="#5f6671" font-size="11" font-weight="400" text-anchor="end" font-family="'SFMono-Regular',ui-monospace,Menlo,Consolas,monospace">numeric</text><rect x="1146" y="0" width="150" height="34" rx="8" fill="#1d1d24" /><text x="1221" y="22" fill="#9aa0aa" font-size="12" font-weight="400" text-anchor="middle" font-family="Inter,-apple-system,'Segoe UI',Roboto,sans-serif">＋  −  ⤢  ⤓ PNG</text></g>
</svg>